<svg width="26" height="26" viewBox="0 0 26 26" fill="none" xmlns="http://www.w3.org/2000/svg">
<path d="M13 1C6.373 1 1 6.373 1 13C1 19.627 6.373 25 13 25C19.627 25 25 19.627 25 13C25 6.373 19.627 1 13 1ZM18.894 9.221L16.924 18.501C16.779 19.159 16.387 19.319 15.84 19.009L12.84 16.799L11.394 18.193C11.3231 18.2847 11.2322 18.359 11.1282 18.4101C11.0242 18.4613 10.9099 18.4879 10.794 18.488H10.789L11.002 15.434L16.562 10.412C16.802 10.199 16.508 10.078 16.189 10.291L9.32 14.617L6.36 13.693C5.72 13.49 5.702 13.053 6.495 12.739L18.061 8.281C18.599 8.085 18.9759 8.61701 18.8689 9.33901L18.894 9.221Z" stroke="white"/>
</svg>
