<svg width="56" height="42" viewBox="0 0 56 42" fill="none" xmlns="http://www.w3.org/2000/svg">
<g filter="url(#filter0_d_4_230)">
<mask id="mask0_4_230" style="mask-type:luminance" maskUnits="userSpaceOnUse" x="0" y="0" width="44" height="42">
<path d="M26.647 16.365C24.0975 12.7769 21.3522 9.93164 18.3081 6.55422L0 15.9758V18.0823L18.0903 9.35223L26.6342 17.7465L26.647 16.3646M26.647 21.3006C24.0975 18.0962 21.3522 15.5546 18.3081 12.5381L0 20.9533V22.8358L18.0903 15.0385L26.6329 22.5352L26.647 21.3006ZM26.647 26.2478C24.0975 23.4495 21.3522 21.2297 18.3081 18.5963L0 25.9445V27.5873L18.0903 20.7788L26.6342 27.3245L26.647 26.2478ZM26.647 30.9522C24.0975 28.0539 21.3522 25.755 18.3081 23.0267L0 30.6383V32.3396C1.66969 31.689 7.69981 29.3382 18.0903 25.2872L26.6329 32.069L26.647 30.9522ZM26.647 35.9222C24.0975 33.4769 21.3522 31.5377 18.3081 29.2364L0 35.657V37.0922L18.0903 31.1432L26.6329 36.8637L26.647 35.9222ZM26.647 40.9975C24.0975 39.2268 21.3522 37.8228 18.3081 36.1564L0 40.8063V41.8457L18.0903 37.538L26.6329 41.6791L26.647 40.9975ZM27.8786 24.6332L38.8109 18.6329L43.9738 24.4014C43.9738 24.4014 43.9826 23.3304 44 21.1891C43.9543 21.2073 43.568 20.899 42.8412 20.2642V21.6279L38.9424 16.7144L27.8792 23.1871L27.8786 24.6332ZM43.9829 26.6012C42.4414 24.4329 40.784 22.7134 38.9437 20.6724L27.8792 26.3672V27.64L38.8115 22.3643L43.9744 27.4372L43.9829 26.6012ZM43.9829 29.584C42.4414 27.6473 40.784 26.1114 38.9437 24.2886L27.8792 29.3752V30.5122L38.8115 25.8002L43.9744 30.3313L43.9829 29.584ZM43.9829 32.5735C42.4414 30.8825 40.784 29.5413 38.9437 27.9497L27.8792 32.3914V33.3842L38.8115 29.2698L43.9744 33.226L43.9829 32.5735ZM43.9829 35.4167C42.4414 33.6648 40.784 32.2756 38.9437 30.6268L27.8792 35.2279V36.2561L38.8115 31.9941L43.9744 36.0925L43.9829 35.4167ZM43.9829 38.4198C42.4414 36.9422 40.784 35.7703 38.9437 34.3794L27.8792 38.2607V39.1281L38.8109 35.5334L43.9738 38.9905C43.9738 38.9905 43.9764 38.8002 43.9816 38.4211L43.9829 38.4198ZM43.9829 41.4869C42.4414 40.4169 40.784 39.5684 38.9437 38.5614L27.8792 41.3721V42L38.8115 39.3969L43.9744 41.9L43.9829 41.4869ZM0 13.1081L18.0903 3.18136L26.6342 12.7272L26.6775 7.41093C26.6016 7.44063 25.9624 6.93041 24.7597 5.88026V8.13551L18.3081 0L0 10.7141V13.1081Z" fill="white"/>
</mask>
<g mask="url(#mask0_4_230)">
<path d="M55.8279 0H-11.8281V63.2133H55.8279V0Z" fill="#825808"/>
</g>
</g>
<defs>
<filter id="filter0_d_4_230" x="-8" y="-8" width="64" height="62" filterUnits="userSpaceOnUse" color-interpolation-filters="sRGB">
<feFlood flood-opacity="0" result="BackgroundImageFix"/>
<feColorMatrix in="SourceAlpha" type="matrix" values="0 0 0 0 0 0 0 0 0 0 0 0 0 0 0 0 0 0 127 0" result="hardAlpha"/>
<feOffset dx="2" dy="2"/>
<feGaussianBlur stdDeviation="5"/>
<feComposite in2="hardAlpha" operator="out"/>
<feColorMatrix type="matrix" values="0 0 0 0 0 0 0 0 0 0 0 0 0 0 0 0 0 0 0.15 0"/>
<feBlend mode="normal" in2="BackgroundImageFix" result="effect1_dropShadow_4_230"/>
<feBlend mode="normal" in="SourceGraphic" in2="effect1_dropShadow_4_230" result="shape"/>
</filter>
</defs>
</svg>
