<svg width="140" height="130" viewBox="0 0 140 130" fill="none" xmlns="http://www.w3.org/2000/svg">
<g filter="url(#filter0_d_4_62)">
<mask id="mask0_4_62" style="mask-type:luminance" maskUnits="userSpaceOnUse" x="8" y="8" width="120" height="110">
<path d="M80.6736 50.8606C73.7205 41.4634 66.2333 34.0114 57.9313 25.1658L8 49.8415V55.3584L57.3373 32.4939L80.6387 54.479L80.6736 50.8598M80.6736 63.7873C73.7205 55.3949 66.2333 48.7383 57.9313 40.8379L8 62.8778V67.8081L57.3373 47.3866L80.6351 67.0208L80.6736 63.7873ZM80.6736 76.7442C73.7205 69.4153 66.2333 63.6016 57.9313 56.7045L8 75.9498V80.2523L57.3373 62.4206L80.6387 79.5642L80.6736 76.7442ZM80.6736 89.0654C73.7205 81.4746 66.2333 75.4537 57.9313 68.3081L8 88.2432V92.6989C12.5537 90.9951 28.9995 84.8382 57.3373 74.2283L80.6351 91.9902L80.6736 89.0654ZM80.6736 102.082C73.7205 95.6776 66.2333 90.5988 57.9313 84.5716L8 101.387V105.146L57.3373 89.5654L80.6351 104.548L80.6736 102.082ZM80.6736 115.374C73.7205 110.737 66.2333 107.06 57.9313 102.695L8 114.874V117.596L57.3373 106.314L80.6351 117.159L80.6736 115.374ZM84.0325 72.5155L113.848 56.8005L127.928 71.9083C127.928 71.9083 127.953 69.1034 128 63.4953C127.875 63.5429 126.822 62.7354 124.84 61.0729V64.6445L114.206 51.7757L84.0343 68.728L84.0325 72.5155ZM127.953 77.6697C123.749 71.9909 119.229 67.4875 114.21 62.142L84.0343 77.0569V80.3904L113.85 66.5732L127.93 79.8594L127.953 77.6697ZM127.953 85.4819C123.749 80.4095 119.229 76.3871 114.21 71.6131L84.0343 84.9351V87.913L113.85 75.572L127.93 87.4391L127.953 85.4819ZM127.953 93.3116C123.749 88.8829 119.229 85.37 114.21 81.2016L84.0343 92.8346V95.4347L113.85 84.6589L127.93 95.0204L127.953 93.3116ZM127.953 100.758C123.749 96.1697 119.229 92.5314 114.21 88.213L84.0343 100.263V102.956L113.85 91.7941L127.93 102.528L127.953 100.758ZM127.953 108.623C123.749 104.753 119.229 101.684 114.21 98.0412L84.0343 108.207V110.478L113.848 101.064L127.928 110.118C127.928 110.118 127.936 109.619 127.95 108.627L127.953 108.623ZM127.953 116.656C123.749 113.854 119.229 111.631 114.21 108.994L84.0343 116.355V118L113.85 111.182L127.93 117.738L127.953 116.656ZM8 42.3308L57.3373 16.3321L80.6387 41.3332L80.7568 27.4096C80.5498 27.4874 78.8064 26.1511 75.5265 23.4007V29.3073L57.9313 8L8 36.0607V42.3308Z" fill="white"/>
</mask>
<g mask="url(#mask0_4_62)">
<path d="M160.258 8H-24.2585V173.559H160.258V8Z" fill="#D0BA91"/>
</g>
</g>
<defs>
<filter id="filter0_d_4_62" x="0" y="0" width="140" height="130" filterUnits="userSpaceOnUse" color-interpolation-filters="sRGB">
<feFlood flood-opacity="0" result="BackgroundImageFix"/>
<feColorMatrix in="SourceAlpha" type="matrix" values="0 0 0 0 0 0 0 0 0 0 0 0 0 0 0 0 0 0 127 0" result="hardAlpha"/>
<feOffset dx="2" dy="2"/>
<feGaussianBlur stdDeviation="5"/>
<feComposite in2="hardAlpha" operator="out"/>
<feColorMatrix type="matrix" values="0 0 0 0 0 0 0 0 0 0 0 0 0 0 0 0 0 0 0.15 0"/>
<feBlend mode="normal" in2="BackgroundImageFix" result="effect1_dropShadow_4_62"/>
<feBlend mode="normal" in="SourceGraphic" in2="effect1_dropShadow_4_62" result="shape"/>
</filter>
</defs>
</svg>
