<svg width="48" height="48" viewBox="0 0 48 48" fill="none" xmlns="http://www.w3.org/2000/svg">
<path d="M36 6H12C10.4087 6 8.88258 6.63214 7.75736 7.75736C6.63214 8.88258 6 10.4087 6 12V36C6 37.5913 6.63214 39.1174 7.75736 40.2426C8.88258 41.3679 10.4087 42 12 42H36C37.5913 42 39.1174 41.3679 40.2426 40.2426C41.3679 39.1174 42 37.5913 42 36V12C42 10.4087 41.3679 8.88258 40.2426 7.75736C39.1174 6.63214 37.5913 6 36 6ZM38 36C38 36.5304 37.7893 37.0391 37.4142 37.4142C37.0391 37.7893 36.5304 38 36 38H12C11.4696 38 10.9609 37.7893 10.5858 37.4142C10.2107 37.0391 10 36.5304 10 36V12C10 11.4696 10.2107 10.9609 10.5858 10.5858C10.9609 10.2107 11.4696 10 12 10H36C36.5304 10 37.0391 10.2107 37.4142 10.5858C37.7893 10.9609 38 11.4696 38 12V36Z" fill="#324052"/>
<path d="M29.4199 18.58C29.234 18.3925 29.0127 18.2438 28.769 18.1422C28.5253 18.0407 28.2639 17.9884 27.9999 17.9884C27.7359 17.9884 27.4744 18.0407 27.2307 18.1422C26.987 18.2438 26.7658 18.3925 26.5799 18.58L23.9999 21.18L21.4199 18.58C21.0433 18.2034 20.5325 17.9918 19.9999 17.9918C19.4673 17.9918 18.9565 18.2034 18.5799 18.58C18.2033 18.9566 17.9917 19.4674 17.9917 20C17.9917 20.5326 18.2033 21.0434 18.5799 21.42L21.1799 24L18.5799 26.58C18.3924 26.7659 18.2436 26.9871 18.1421 27.2308C18.0406 27.4746 17.9883 27.736 17.9883 28C17.9883 28.264 18.0406 28.5254 18.1421 28.7692C18.2436 29.0129 18.3924 29.2341 18.5799 29.42C18.7658 29.6075 18.987 29.7562 19.2307 29.8578C19.4744 29.9593 19.7359 30.0116 19.9999 30.0116C20.2639 30.0116 20.5253 29.9593 20.769 29.8578C21.0128 29.7562 21.234 29.6075 21.4199 29.42L23.9999 26.82L26.5799 29.42C26.7658 29.6075 26.987 29.7562 27.2307 29.8578C27.4744 29.9593 27.7359 30.0116 27.9999 30.0116C28.2639 30.0116 28.5253 29.9593 28.769 29.8578C29.0127 29.7562 29.234 29.6075 29.4199 29.42C29.6073 29.2341 29.7561 29.0129 29.8577 28.7692C29.9592 28.5254 30.0115 28.264 30.0115 28C30.0115 27.736 29.9592 27.4746 29.8577 27.2308C29.7561 26.9871 29.6073 26.7659 29.4199 26.58L26.8199 24L29.4199 21.42C29.6073 21.2341 29.7561 21.0129 29.8577 20.7692C29.9592 20.5254 30.0115 20.264 30.0115 20C30.0115 19.736 29.9592 19.4746 29.8577 19.2308C29.7561 18.9871 29.6073 18.7659 29.4199 18.58Z" fill="#324052"/>
</svg>
